<?xml version="1.0" encoding="UTF-8" standalone="no"?>
<!-- Created with Inkscape (http://www.inkscape.org/) -->

<svg
   width="2678.6848"
   height="811.7442"
   viewBox="0 0 708.73536 214.77398"
   version="1.1"
   id="svg5"
   xmlns="http://www.w3.org/2000/svg"
   xmlns:svg="http://www.w3.org/2000/svg">
  <defs
     id="defs2" />
  <g
     id="g1315"
     style="display:inline"
     transform="translate(-1207.3892,-817.368)">
    <g
       id="g1305"
       transform="matrix(0.94769604,0,0,1.1526528,1026.5168,611.04142)">
      <path
         id="path1299"
         style="fill:#1d4ed8;fill-opacity:1;stroke-width:0.341367"
         d="m 824.97314,275.51032 -89.76531,85.32948 a 2.6043277,2.6043277 68.225608 0 0 1.79431,4.49191 h 101.78702 a 9.2248459,9.2248459 158.22577 0 0 6.35562,-2.53875 l 35.54735,-33.79037 a 2.5175548,2.5175548 90.001195 0 0 7e-5,-3.64934 l -52.43014,-49.84287 a 2.3867821,2.3867821 0.00103601 0 0 -3.28892,-6e-5 z" />
      <path
         id="path1301"
         style="fill:#60a5fa;fill-opacity:1;stroke-width:0.341367"
         d="m 882.27755,220.98257 -52.21006,49.63033 a 2.0684214,2.0684214 89.999871 0 0 0,2.99833 l 52.4926,49.89846 a 2.7960127,2.7960127 180 0 0 3.85274,0 l 51.07342,-48.54942 a 3.9215978,3.9215978 89.940988 0 0 -0.006,-5.69022 l -51.01244,-48.29181 a 3.0443534,3.0443534 179.94086 0 0 -4.1904,0.004 z" />
      <path
         id="path1303"
         style="fill:#cffafe;fill-opacity:1;stroke-width:0.341367"
         d="m 735.52393,183.79389 89.51498,85.09198 a 2.4623729,2.4623729 0.0518797 0 0 3.38979,0.003 l 51.88164,-49.13959 a 3.1560617,3.1560617 90.130515 0 0 0.0104,-4.57289 L 844.19737,180.6487 a 5.944337,5.944337 21.853104 0 0 -4.10731,-1.64722 H 737.43828 a 2.7785558,2.7785558 111.77447 0 0 -1.91435,4.79241 z" />
    </g>
    <text
       xml:space="preserve"
       style="font-style:normal;font-variant:normal;font-weight:normal;font-stretch:normal;font-size:126.239px;font-family:Quantify;-inkscape-font-specification:'Quantify, Normal';font-variant-ligatures:normal;font-variant-caps:normal;font-variant-numeric:normal;font-variant-east-asian:normal;opacity:1;fill:#ffffff;fill-opacity:1;stroke-width:0.362604"
       x="1442.4141"
       y="996.54492"
       id="text1309"
       transform="scale(1.0041176,0.99589924)"><tspan
         id="tspan1307"
         style="font-style:normal;font-variant:normal;font-weight:normal;font-stretch:normal;font-size:41.9471px;font-family:Vazirmatn;-inkscape-font-specification:'Vazirmatn, @wght=100';font-variant-ligatures:normal;font-variant-caps:normal;font-variant-numeric:normal;font-variant-east-asian:normal;font-variation-settings:'wght' 100;fill:#ffffff;fill-opacity:1;stroke-width:0.362604"
         x="1442.4141"
         y="996.54492">BUILD BETTER</tspan></text>
    <path
       id="rect24450-3-6"
       style="display:inline;fill:#ffffff;fill-opacity:1;stroke-width:0.122688"
       d="m 1207.3895,976.29366 h 238.7856 v 3.03786 h -238.7856 z" />
    <text
       xml:space="preserve"
       style="font-style:normal;font-variant:normal;font-weight:normal;font-stretch:normal;font-size:2.42876px;font-family:Quantify;-inkscape-font-specification:'Quantify, Normal';font-variant-ligatures:normal;font-variant-caps:normal;font-variant-numeric:normal;font-variant-east-asian:normal;white-space:pre;inline-size:88.4655;display:inline;opacity:1;fill:#ffffff;fill-opacity:1;stroke-width:0.264583"
       x="317.40363"
       y="294.05206"
       id="text1313"
       transform="matrix(44.584679,0,0,49.216231,-12947.228,-13538.342)"><tspan
         x="317.40363"
         y="294.05206"
         id="tspan623">nsedrickm</tspan></text>
  </g>
</svg>
